<svg xmlns="http://www.w3.org/2000/svg" width="15" height="15" viewBox="0 0 15 15">
    <path fill="#ff4747" d="M3.047 8.438H.7a.7.7 0 0 1-.7-.7V.7A.7.7 0 0 1 .7 0h2.347a.7.7 0 0 1 .7.7v7.034a.7.7 0 0 1-.7.704zM1.875 1.172a.7.7 0 1 0 .7.7.7.7 0 0 0-.7-.7zm9.375 11.442c0-1.243-.761-1.94-.975-2.77h2.98A1.75 1.75 0 0 0 15 8.142a2.121 2.121 0 0 0-.57-1.442 2.447 2.447 0 0 0-.273-2.328 2.317 2.317 0 0 0-.48-2.19 1.555 1.555 0 0 0-.18-1.308C12.9.012 11.415 0 10.161 0h-.083a8.41 8.41 0 0 0-3.5.929 4.611 4.611 0 0 1-1.545.471.352.352 0 0 0-.345.352v6.266a.351.351 0 0 0 .1.25c1.161 1.147 1.66 2.361 2.611 3.314a3.548 3.548 0 0 1 .744 1.726c.13.542.4 1.693.994 1.693.707-.001 2.113-.235 2.113-2.387z"/>
</svg>
