<svg xmlns="http://www.w3.org/2000/svg" width="15.776" height="15.776" viewBox="0 0 15.776 15.776">
    <path fill="#78ee80" d="M3.2 6.9H.74a.74.74 0 0 0-.74.74v7.4a.74.74 0 0 0 .74.74H3.2a.74.74 0 0 0 .74-.74v-7.4a.74.74 0 0 0-.74-.74zm-1.228 7.644a.74.74 0 1 1 .74-.74.74.74 0 0 1-.74.74zm9.86-12.034c0 1.307-.8 2.04-1.025 2.913h3.134a1.841 1.841 0 0 1 1.835 1.79 2.231 2.231 0 0 1-.6 1.516 2.574 2.574 0 0 1-.287 2.449 2.437 2.437 0 0 1-.5 2.3 1.636 1.636 0 0 1-.189 1.375c-.629.9-2.188.916-3.506.916H10.6a8.846 8.846 0 0 1-3.684-.969 4.849 4.849 0 0 0-1.622-.5.37.37 0 0 1-.363-.37V7.344a.369.369 0 0 1 .11-.263C6.26 5.875 6.785 4.6 7.786 3.6a3.732 3.732 0 0 0 .782-1.815C8.705 1.211 8.992 0 9.614 0c.739 0 2.218.247 2.218 2.51z"/>
</svg>
