<svg width="122" height="120" viewBox="0 0 122 120" fill="none" xmlns="http://www.w3.org/2000/svg">
<path d="M120 60C120 26.8629 93.1371 0 60 0C26.8629 0 0 26.8629 0 60C0 93.1371 26.8629 120 60 120C93.1371 120 120 93.1371 120 60Z" fill="#020808" fill-opacity="0.36"/>
<path d="M53.6707 35.1373L60 28.808L66.1638 34.9719" stroke="#51E8EF" stroke-width="2"/>
<path d="M34.3291 54.4788L27.9998 60.8081L34.1636 66.972" stroke="#51E8EF" stroke-width="2"/>
<path d="M85.6707 67.1374L92 60.8081L85.8362 54.6443" stroke="#51E8EF" stroke-width="2"/>
<path d="M66.3294 86.4789L60.0001 92.8083L53.8362 86.6444" stroke="#51E8EF" stroke-width="2"/>
<path opacity="0.34" d="M78.7503 60.5578L60.2502 42.0578L41.7502 60.5578L60.2502 79.0578L78.7503 60.5578Z" fill="#51E8EF"/>
</svg>
