<svg id="Group_84458" data-name="Group 84458" xmlns="http://www.w3.org/2000/svg" xmlns:xlink="http://www.w3.org/1999/xlink" width="30.233" height="23.032" viewBox="0 0 30.233 23.032">
  <defs>
    <clipPath id="clip-path">
      <rect id="Rectangle_22052" data-name="Rectangle 22052" width="30.233" height="23.032" fill="#707070"/>
    </clipPath>
  </defs>
  <g id="Group_84457" data-name="Group 84457" clip-path="url(#clip-path)">
    <path id="Path_37618" data-name="Path 37618" d="M5.69,234.931,4.624,236a.511.511,0,0,1-.8,0l-2.271-2.271a.5.5,0,0,1,0-.779q.518-.52,1.038-1.039a.092.092,0,0,0,.026-.123q-.254-.59-.494-1.186c-.027-.067-.054-.091-.125-.09-.5,0-.994,0-1.491,0A.483.483,0,0,1,0,230q0-1.659,0-3.317a.475.475,0,0,1,.489-.488c.5,0,1.007,0,1.51,0a.111.111,0,0,0,.126-.088c.161-.423.33-.842.5-1.284l-.78-.776c-.109-.109-.219-.216-.327-.327a.489.489,0,0,1,0-.713q1.168-1.17,2.337-2.338a.493.493,0,0,1,.75.018q.517.514,1.03,1.032a.116.116,0,0,0,.158.027c.409-.184.822-.36,1.234-.539l.02.024v-.114q0-.75,0-1.5a.477.477,0,0,1,.459-.477l3.3,0a.86.86,0,0,1,.218.019.482.482,0,0,1,.352.477c0,.493,0,.987,0,1.48v.094l1.362.563.754-.761q.166-.167.334-.333a.491.491,0,0,1,.749,0q.8.8,1.6,1.6l.713.712a.5.5,0,0,1,0,.752c-.343.344-.687.689-1.033,1.03a.131.131,0,0,0-.031.178q.251.574.479,1.158c.027.07.056.091.125.091.49,0,.98.008,1.469-.007a.51.51,0,0,1,.535.536c-.006,1.088,0,2.176,0,3.265a.489.489,0,0,1-.524.523q-.74,0-1.48,0a.112.112,0,0,0-.125.088q-.229.578-.474,1.149a.138.138,0,0,0,.028.187c.348.34.69.684,1.033,1.029a.494.494,0,0,1,0,.744q-.977.982-1.959,1.958c-.114.114-.226.229-.339.342a.5.5,0,0,1-.781,0q-.517-.515-1.031-1.032c-.022-.022-.046-.043-.051-.047l-1.352.561v1.522a.5.5,0,0,1-.55.552q-1.191,0-2.383,0c-.308,0-.615,0-.922-.01a.466.466,0,0,1-.47-.508q0-.735,0-1.47v-.086l-1.363-.563m8.493-13.248a1.033,1.033,0,0,1-.085.113q-.47.473-.942.943a.478.478,0,0,1-.612.081,6.733,6.733,0,0,0-1.761-.733.485.485,0,0,1-.39-.511q0-.667,0-1.333v-.121H8.039v.1q0,.661,0,1.323a.512.512,0,0,1-.431.559,6.293,6.293,0,0,0-1.65.677.514.514,0,0,1-.746-.1l-.9-.906c-.026-.026-.054-.05-.073-.066L2.57,223.37c.021.022.044.048.068.072.316.317.634.633.948.951a.485.485,0,0,1,.081.655,6.456,6.456,0,0,0-.711,1.724.484.484,0,0,1-.508.4H.988v2.368H2.462a.473.473,0,0,1,.488.376,6.543,6.543,0,0,0,.73,1.762.478.478,0,0,1-.074.613c-.1.105-.207.209-.311.312l-.731.724L4.232,235l.05-.048c.322-.322.642-.644.965-.965a.5.5,0,0,1,.665-.085,6.441,6.441,0,0,0,1.664.7.524.524,0,0,1,.462.586q0,.64,0,1.281v.119h2.355v-.121q0-.672,0-1.344a.482.482,0,0,1,.38-.5,6.755,6.755,0,0,0,1.745-.72.488.488,0,0,1,.656.079c.142.14.282.282.423.423l.594.593,1.664-1.666c-.012-.013-.028-.031-.044-.048l-.965-.965a.494.494,0,0,1-.093-.638,7.073,7.073,0,0,0,.727-1.765.468.468,0,0,1,.507-.377h1.454v-2.368h-.122c-.451,0-.9,0-1.354,0a.479.479,0,0,1-.487-.38,6.431,6.431,0,0,0-.71-1.725.515.515,0,0,1,.093-.692c.226-.224.45-.45.677-.673.112-.109.229-.213.341-.317l-1.694-1.7" transform="translate(0 -214.537)" fill="#707070"/>
    <path id="Path_37619" data-name="Path 37619" d="M808.408,11.9l-.82.155c-.063.3-.132.615-.193.929a.5.5,0,0,1-.641.43q-1.1-.23-2.2-.454a.5.5,0,0,1-.418-.64c.061-.293.123-.586.18-.88a.119.119,0,0,0-.037-.1c-.2-.139-.395-.275-.6-.406a.135.135,0,0,0-.116.015c-.252.163-.5.332-.75.5a.488.488,0,0,1-.712-.144q-.635-.962-1.265-1.928a.489.489,0,0,1,.145-.7q.379-.253.764-.5a.111.111,0,0,0,.054-.138q-.066-.322-.12-.647a.1.1,0,0,0-.1-.1q-.451-.088-.9-.186a.481.481,0,0,1-.388-.6q.232-1.137.468-2.272a.486.486,0,0,1,.58-.383q.456.092.911.188a.11.11,0,0,0,.136-.057c.118-.185.243-.367.371-.545a.1.1,0,0,0,0-.138c-.163-.244-.323-.491-.483-.736a.489.489,0,0,1,.149-.748q.958-.632,1.919-1.259a.485.485,0,0,1,.682.138c.176.26.347.524.518.788a.09.09,0,0,0,.117.046c.241-.055.484-.1.742-.15l.169-.8c.011-.054.021-.109.034-.163a.481.481,0,0,1,.6-.4q1.137.229,2.271.474a.479.479,0,0,1,.386.6c-.06.3-.126.607-.185.912a.107.107,0,0,0,.034.089c.21.144.424.283.646.429l.811-.531a.493.493,0,0,1,.727.148q.627.955,1.252,1.911a.491.491,0,0,1-.156.724c-.252.163-.5.331-.755.493a.1.1,0,0,0-.051.119c.044.215.084.43.123.646.011.063.027.1.1.114.3.054.594.12.89.183a.489.489,0,0,1,.393.61q-.236,1.125-.467,2.252a.482.482,0,0,1-.588.395c-.3-.059-.6-.121-.9-.186a.115.115,0,0,0-.143.061c-.118.185-.243.366-.373.543a.093.093,0,0,0,0,.128q.255.385.505.772a.484.484,0,0,1-.144.7q-.962.636-1.927,1.266a.489.489,0,0,1-.712-.149c-.092-.136-.18-.275-.27-.412l-.272-.41m2.919-8.839c-.259.17-.506.334-.755.494A.472.472,0,0,1,810,3.526a4.879,4.879,0,0,0-1.113-.76.478.478,0,0,1-.267-.5c.02-.113.047-.225.071-.337.039-.19.078-.38.118-.577l-1.331-.275c-.064.307-.123.6-.186.893a.481.481,0,0,1-.438.375,4.5,4.5,0,0,0-1.291.242.489.489,0,0,1-.552-.141,1.927,1.927,0,0,1-.112-.165l-.417-.633-1.135.746.482.736a.493.493,0,0,1-.034.61,4.611,4.611,0,0,0-.746,1.1.422.422,0,0,1-.378.259,2.143,2.143,0,0,1-.412-.052c-.208-.038-.414-.084-.628-.128l-.276,1.331c.289.059.564.118.841.173a.5.5,0,0,1,.433.491,4.467,4.467,0,0,0,.236,1.26.6.6,0,0,1,.025.225.537.537,0,0,1-.3.413c-.221.139-.437.285-.663.433l.746,1.137c.254-.167.495-.328.738-.485a.473.473,0,0,1,.609.039,4.719,4.719,0,0,0,1.1.745.405.405,0,0,1,.244.308,1.112,1.112,0,0,1-.012.339c-.045.256-.1.509-.156.771l1.333.274c.064-.312.121-.6.183-.891a.486.486,0,0,1,.418-.374,4.8,4.8,0,0,0,1.341-.251.472.472,0,0,1,.558.2c.1.153.2.311.3.466.062.095.127.188.191.284l1.136-.746c-.168-.257-.331-.5-.489-.748a.483.483,0,0,1,.05-.609,4.6,4.6,0,0,0,.735-1.078.458.458,0,0,1,.489-.27c.1.01.206.036.308.057l.624.127.277-1.33c-.283-.059-.561-.118-.84-.174a.48.48,0,0,1-.427-.47,4.826,4.826,0,0,0-.232-1.24.5.5,0,0,1,.214-.643c.037-.026.076-.05.114-.075l.6-.393-.745-1.138" transform="translate(-783.479 -0.001)" fill="#707070"/>
    <path id="Path_37620" data-name="Path 37620" d="M200.829,425.038a5.106,5.106,0,1,1,5.1-4.919,5.111,5.111,0,0,1-5.1,4.919m-4.118-5.1a4.121,4.121,0,1,0,4.109-4.13,4.12,4.12,0,0,0-4.109,4.13" transform="translate(-191.616 -406.116)" fill="#707070"/>
    <path id="Path_37621" data-name="Path 37621" d="M950.122,146.178a3.726,3.726,0,1,1-3.72-3.722,3.718,3.718,0,0,1,3.72,3.722m-3.721,2.746a2.741,2.741,0,1,0-2.752-2.728,2.736,2.736,0,0,0,2.752,2.728" transform="translate(-922.876 -139.465)" fill="#707070"/>
    <path id="Path_37622" data-name="Path 37622" d="M273.707,496.239a3.471,3.471,0,0,1,3.2-3.325,1.523,1.523,0,0,1,.384.005.474.474,0,0,1,.365.554.494.494,0,0,1-.476.407,2.478,2.478,0,0,0-2.426,1.918,4.487,4.487,0,0,0-.076.622.488.488,0,0,1-.974-.035c0-.049,0-.1,0-.147" transform="translate(-267.959 -482.555)" fill="#707070"/>
  </g>
</svg>
