<svg xmlns="http://www.w3.org/2000/svg" width="24" height="24" viewBox="0 0 24 24">
  <g id="Starting_Mechanism" data-name="Starting Mechanism" transform="translate(-11 -11)">
    <g id="Group_72014" data-name="Group 72014" transform="translate(11 11)">
      <path id="Path_8456" data-name="Path 8456" d="M23,11A12,12,0,1,0,35,23,12.021,12.021,0,0,0,23,11Zm-.679,4.075a.679.679,0,1,1,1.358,0V19.6a.679.679,0,1,1-1.358,0ZM23,30.472a7.475,7.475,0,0,1-3.736-13.947.68.68,0,1,1,.679,1.177,6.113,6.113,0,1,0,6.113,0,.68.68,0,1,1,.679-1.177A7.475,7.475,0,0,1,23,30.472Z" transform="translate(-11 -11)" fill="#707070"/>
    </g>
  </g>
</svg>
