<svg xmlns="http://www.w3.org/2000/svg" width="24" height="24" viewBox="0 0 24 24">
  <g id="Wheel" transform="translate(-5.5 -5.5)">
    <g id="Group_72013" data-name="Group 72013" transform="translate(5.5 5.5)">
      <g id="Group_72004" data-name="Group 72004" transform="translate(4.484 7.294)">
        <path id="Path_8447" data-name="Path 8447" d="M19.918,23.868a6.891,6.891,0,0,1-4.561-4.995,7.5,7.5,0,0,0-1.636,4.258l.529.348A5.8,5.8,0,0,0,19.918,23.868Z" transform="translate(-13.721 -18.873)" fill="#707070"/>
      </g>
      <g id="Group_72005" data-name="Group 72005" transform="translate(4.517 12.875)">
        <path id="Path_8448" data-name="Path 8448" d="M20.569,29.429a6.866,6.866,0,0,1-6.788-.326,7.5,7.5,0,0,0,1.909,4.182l.6-.124A5.8,5.8,0,0,0,20.569,29.429Z" transform="translate(-13.781 -29.104)" fill="#707070"/>
      </g>
      <g id="Group_72006" data-name="Group 72006" transform="translate(7.405 13.403)">
        <path id="Path_8449" data-name="Path 8449" d="M19.075,34.632a7.488,7.488,0,0,0,4.3,1.561l.3-.452a5.8,5.8,0,0,0,.388-5.668A6.89,6.89,0,0,1,19.075,34.632Z" transform="translate(-19.075 -30.073)" fill="#707070"/>
      </g>
      <g id="Group_72007" data-name="Group 72007" transform="translate(13.042 12.953)">
        <path id="Path_8450" data-name="Path 8450" d="M29.757,29.248a6.892,6.892,0,0,1-.346,6.5,7.516,7.516,0,0,0,4.23-2.079A5.81,5.81,0,0,0,29.757,29.248Z" transform="translate(-29.411 -29.248)" fill="#707070"/>
      </g>
      <g id="Group_72008" data-name="Group 72008" transform="translate(7.032 4.542)">
        <path id="Path_8451" data-name="Path 8451" d="M22.45,20.549a6.9,6.9,0,0,1-.131-6.722,7.5,7.5,0,0,0-3.927,1.8l.119.577A5.793,5.793,0,0,0,22.45,20.549Z" transform="translate(-18.392 -13.827)" fill="#707070"/>
      </g>
      <g id="Group_72009" data-name="Group 72009" transform="translate(11.236 4.475)">
        <path id="Path_8452" data-name="Path 8452" d="M31.339,15.178a7.485,7.485,0,0,0-4.2-1.473,5.812,5.812,0,0,0-.324,6.1A6.9,6.9,0,0,1,31.339,15.178Z" transform="translate(-26.099 -13.705)" fill="#707070"/>
      </g>
      <g id="Group_72010" data-name="Group 72010" transform="translate(13.511 11.134)">
        <path id="Path_8453" data-name="Path 8453" d="M30.271,26.624a6.9,6.9,0,0,1,4.622,4.52,7.487,7.487,0,0,0,1.4-4.25A5.813,5.813,0,0,0,30.271,26.624Z" transform="translate(-30.271 -25.912)" fill="#707070"/>
      </g>
      <g id="Group_72011" data-name="Group 72011">
        <path id="Path_8454" data-name="Path 8454" d="M17.5,5.5a12,12,0,1,0,12,12A12.014,12.014,0,0,0,17.5,5.5Zm0,20.629A8.629,8.629,0,1,1,26.129,17.5,8.639,8.639,0,0,1,17.5,26.129Z" transform="translate(-5.5 -5.5)" fill="#707070"/>
      </g>
      <g id="Group_72012" data-name="Group 72012" transform="translate(12.993 6.816)">
        <path id="Path_8455" data-name="Path 8455" d="M29.321,22.067a6.9,6.9,0,0,1,6.44-.087A7.512,7.512,0,0,0,33.786,18,5.812,5.812,0,0,0,29.321,22.067Z" transform="translate(-29.321 -17.996)" fill="#707070"/>
      </g>
    </g>
  </g>
</svg>
